<svg xmlns="http://www.w3.org/2000/svg" width="900" height="373" viewBox="0 0 900 373">
    <defs>
        <clipPath id="sp028zt8ra">
            <path data-name="사각형 2890" style="fill:none" d="M0 0h900v373H0z"/>
        </clipPath>
    </defs>
    <g data-name="그룹 1854" style="clip-path:url(#sp028zt8ra)">
        <path data-name="패스 15610" d="M869.982 288.437s-7 17.375-13.4 25.543c-6.4 8.188-32.277 16.656-32.277 16.656" transform="translate(-.359 -.304)" style="stroke:#222;stroke-linecap:round;stroke-linejoin:round;stroke-width:.4px;fill:none"/>
        <path data-name="패스 15611" d="M864.04 317.248c8.1-10.825 15.779-34.669 16.359-36.468" transform="translate(-.376 -.296)" style="stroke:#222;stroke-linecap:round;stroke-linejoin:round;stroke-width:.4px;fill:none"/>
        <path data-name="패스 15612" d="M24.008 268.465c.6.26 1.52.579 2.64.959 4.66 1.537 12.778 3.934 15.518 6.79a21.4 21.4 0 0 1 3.92 5.972c1.879 3.934 4.039 9.286 12.019 19.631 12.479 16.177 32.937 30.236 36.917 32.093 1.8.839 2.359 1.818 2.079 2.636-.3.979-1.779 1.738-3.679 1.738h-9.959c-36.697-14.399-56.835-63.089-59.455-69.819z" transform="translate(-.01 -.283)" style="stroke:#222;stroke-linecap:round;stroke-linejoin:round;stroke-width:.4px;fill:none"/>
        <path data-name="패스 15613" d="M24.008 104.834a27.9 27.9 0 0 1 2.78-1c4.68-1.537 12.658-3.894 15.378-6.75a20.8 20.8 0 0 0 3.9-5.952c1.88-3.932 4.06-9.284 12.039-19.632 12.479-16.174 32.937-30.234 36.917-32.092 1.8-.838 2.359-1.817 2.079-2.635-.3-.979-1.779-1.738-3.679-1.738h-9.959c-36.697 14.4-56.835 63.09-59.455 69.799z" transform="translate(-.01 -.037)" style="stroke:#222;stroke-linecap:round;stroke-linejoin:round;stroke-width:.4px;fill:none"/>
        <path data-name="패스 15614" d="M11.222 114.365a26.154 26.154 0 0 0-5.36 9.306" transform="translate(-.003 -.12)" style="stroke:#222;stroke-linecap:round;stroke-linejoin:round;stroke-width:.4px;fill:none"/>
        <path data-name="패스 15615" d="M317.32 19.36c-15.9.26-29.957.479-40.636.639-13.1.2-21.1.34-21.1.34s-19.818-2.756-49.376-2.816c-29.557-.04-88.851 1.777-94.932 2.816 0 0-18.418 7.529-34.1 14.6-4.8 2.157-9.36 4.293-13.039 6.152" transform="translate(-.028 -.018)" style="stroke:#222;stroke-linecap:round;stroke-linejoin:round;stroke-width:.4px;fill:none"/>
        <path data-name="패스 15616" d="M842.01 36.253c-21.5-6.71-52.375-11.583-56.255-12.362-4.619-.919-19.418-5.932-24.957-6.331-5.56-.4-89.692-2.376-99.992-2.376-7.339 0-20.178 1.179-26.977 1.878-2.76.259-4.52.459-4.52.459H479.442c-30.4 0-94.392.28-146.267 1.059" transform="translate(-.145 -.016)" style="stroke:#222;stroke-linecap:round;stroke-linejoin:round;stroke-width:.4px;fill:none"/>
        <path data-name="패스 15617" d="M637.781 356.373c7.079.679 17.039 1.5 23.158 1.5 10.3 0 94.432-1.977 99.992-2.377 5.54-.4 20.338-5.412 24.957-6.33 3.94-.779 35.617-5.792 57.155-12.662a103.327 103.327 0 0 0 10.06-3.7c19.818-8.707 31.437-30.076 35.676-44.316 4.22-14.259 11.3-71.177 11.3-101.953s-7.079-87.711-11.3-101.95c-4.239-14.239-15.858-35.608-35.676-44.316a105.152 105.152 0 0 0-10.919-3.974" transform="translate(-.278 -.038)" style="stroke:#222;stroke-linecap:round;stroke-linejoin:round;stroke-width:.4px;fill:none"/>
        <path data-name="패스 15618" d="M333 354.251c51.874.779 116.048 1.617 146.447 1.617h149.862s3.479.38 8.319.839" transform="translate(-.145 -.373)" style="stroke:#222;stroke-linecap:round;stroke-linejoin:round;stroke-width:.4px;fill:none"/>
        <path data-name="패스 15619" d="M.2 186.7c0 20.231 2.84 49.029 4.88 59.674a27.816 27.816 0 0 0 .78 3.275 26.153 26.153 0 0 0 5.36 9.307c11.039 36.926 37.177 65.225 52.895 73.154 3.679 1.878 8.239 4.015 13.059 6.172 15.678 7.09 34.077 14.6 34.077 14.6 6.079 1.039 65.374 2.856 94.932 2.816 29.557-.06 49.375-2.816 49.375-2.816s26.4.44 61.734.979c3.94 7.729 8 14.619 10.439 16.237a16.122 16.122 0 0 0 11.1 2.775s-2.98-9.346-5.979-18.772" transform="translate(0 -.197)" style="stroke:#222;stroke-linecap:round;stroke-linejoin:round;stroke-width:.4px;fill:none"/>
        <path data-name="패스 15620" d="M306.157 44.066c.3-.879.9-2.376 1.74-4.313l-21.719.12c5.32 2.416 23.058 7.409 43.756 12.722 28.857 7.409 63.414 15.5 77.873 18.194 16.259 3.035 44.8 4.813 85.033 5.272q8.7.12 18.138.119c1.66.02 3.34.02 5.04.02h.02c6.719 0 13.579-.039 20.518-.079 16.4-.14 43.436-1.419 86.592-5.912 19.8-2.077 43-4.813 70.113-8.428l2.14-.28c1.7-.22 3.78-.5 6.1-.778 11.879-1.518 46.737-8.168 46.737-8.168l-9.7-4.633c-5-.44-71.634-4.594-72.254-4.634l-1.14-.04-14.239-.4-152.884-4.354-9.58-.28h-.92l-9.339.08-147.807 1.279-4.939.04" transform="translate(-.125 -.04)" style="stroke:#222;stroke-linecap:round;stroke-linejoin:round;stroke-width:.4px;fill:none"/>
        <path data-name="패스 15621" d="m320.925 40.553-1.96 6.112-12.958-2.2" transform="translate(-.133 -.043)" style="stroke:#222;stroke-linecap:round;stroke-linejoin:round;stroke-width:.4px;fill:none"/>
        <path data-name="패스 15622" d="m665.586 330.086.7-.02c.62-.04 67.255-4.214 72.254-4.633l9.7-4.633s-34.857-6.651-46.737-8.168c-2.319-.3-4.4-.559-6.1-.779l-2.139-.3c-27.118-3.614-50.316-6.35-70.114-8.407-43.156-4.494-70.193-5.772-86.592-5.912-6.939-.06-13.8-.08-20.518-.08h-.02c-1.7 0-3.38 0-5.04.02q-9.449 0-18.138.12c-40.236.46-68.774 2.237-85.033 5.272-14.459 2.7-49.016 10.725-77.873 18.094-20.7 5.292-38.436 10.245-43.756 12.662l-.02.1 21.739.18c-.981-2.277-1.64-3.975-1.9-4.734l12.959-2.2 1.959 6.132a11.675 11.675 0 0 1 4.52.939l4.94.04 147.807 1.278 9.7.08h.56l9.58-.28 152.886-4.353z" transform="translate(-.125 -.313)" style="stroke:#222;stroke-linecap:round;stroke-linejoin:round;stroke-width:.4px;fill:none"/>
        <path data-name="패스 15623" d="M274.519 48.13s-37.037 50.627-37.037 138.42 36.237 137.761 36.237 137.761l114.73-27.06s-.24-1.1-.661-3.156c-2.64-12.6-12.039-60.892-12.039-107.545 0-48.31 10.08-98.378 12.279-108.743.261-1.278.421-1.957.421-1.957z" transform="translate(-.103 -.051)" style="stroke:#222;stroke-linecap:round;stroke-linejoin:round;stroke-width:.4px;fill:none"/>
        <path data-name="패스 15624" d="M661.009 287.7c1.319-6.371 8.979-46.153 8.979-101.114 0-60.053-9.159-102.013-9.159-102.013" transform="translate(-.288 -.089)" style="stroke:#222;stroke-linecap:round;stroke-linejoin:round;stroke-width:.4px;fill:none"/>
        <path data-name="패스 15625" d="m662.829 84.406 122.229-9.886s20.258 30.456 20.258 112.058c0 81.582-20.258 112.039-20.258 112.039L660.829 288.59s.06-.3.18-.878" transform="translate(-.288 -.078)" style="stroke:#222;stroke-linecap:round;stroke-linejoin:round;stroke-width:.4px;fill:none"/>
        <path data-name="선 66" transform="translate(623.005 303.012)" style="stroke:#222;stroke-linecap:round;stroke-linejoin:round;stroke-width:.4px;fill:none" d="m0 0 27.778 27.18"/>
        <path data-name="선 67" transform="translate(497.896 296.961)" style="stroke:#222;stroke-linecap:round;stroke-linejoin:round;stroke-width:.4px;fill:none" d="M0 37.585 12.958 0"/>
        <path data-name="패스 15626" d="M492.925 297.273v.02L478.266 335" transform="translate(-.208 -.313)" style="stroke:#222;stroke-linecap:round;stroke-linejoin:round;stroke-width:.4px;fill:none"/>
        <path data-name="선 68" transform="translate(329.811 320.347)" style="stroke:#222;stroke-linecap:round;stroke-linejoin:round;stroke-width:.4px;fill:none" d="M.44 13.121 0 0"/>
        <path data-name="선 69" transform="translate(623.005 42.808)" style="stroke:#222;stroke-linecap:round;stroke-linejoin:round;stroke-width:.4px;fill:none" d="M0 27.18 27.778 0"/>
        <path data-name="선 70" transform="translate(497.896 38.454)" style="stroke:#222;stroke-linecap:round;stroke-linejoin:round;stroke-width:.4px;fill:none" d="m0 0 12.958 37.585"/>
        <path data-name="패스 15627" d="M492.925 76.08v-.02l-14.659-37.706" transform="translate(-.208 -.04)" style="stroke:#222;stroke-linecap:round;stroke-linejoin:round;stroke-width:.4px;fill:none"/>
        <path data-name="패스 15628" d="m330.394 39.574-.44 13.021v.1" transform="translate(-.144 -.042)" style="stroke:#222;stroke-linecap:round;stroke-linejoin:round;stroke-width:.4px;fill:none"/>
        <path data-name="패스 15629" d="M97.132 336.561c1.339.3 2.2.5 2.2.5s43.956 4.853 84.672 6.47c39.337 1.558 92.772 2.816 96.272 2.9l5.78-13.021-12.42-8.847c-51.516-4.474-108.39-15.058-152.407-24.525S46.1 282.2 46.1 282.2" transform="translate(-.02 -.297)" style="stroke:#222;stroke-linecap:round;stroke-linejoin:round;stroke-width:.4px;fill:none"/>
        <path data-name="패스 15630" d="m286.074 39.874-11.639 8.248C222.92 52.6 165.845 63.36 121.629 72.986S46.1 91.14 46.1 91.14" transform="translate(-.02 -.042)" style="stroke:#222;stroke-linecap:round;stroke-linejoin:round;stroke-width:.4px;fill:none"/>
        <path data-name="패스 15631" d="M97.154 36.765c1.339-.32 2.08-.479 2.08-.479s43.956-4.853 84.672-6.45c39.277-1.578 92.212-2.816 95.851-2.9h.02l5.58 11.423.38.779" transform="translate(-.042 -.028)" style="stroke:#222;stroke-linecap:round;stroke-linejoin:round;stroke-width:.4px;fill:none"/>
        <path data-name="패스 15632" d="M18.841 253.443c-2.7-.46-8.259-3.615-12.479-6.211l-1.28-.8" transform="translate(-.002 -.259)" style="stroke:#222;stroke-linecap:round;stroke-linejoin:round;stroke-width:.4px;fill:none"/>
        <path data-name="패스 15633" d="M26.646 269.407c-2.28-5.292-4.82-12.3-6.079-15.8" transform="translate(-.009 -.267)" style="stroke:#222;stroke-linecap:round;stroke-linejoin:round;stroke-width:.4px;fill:none"/>
        <path data-name="패스 15634" d="M83.462 338.283a68.63 68.63 0 0 1-5.4-1.9c-36.717-14.6-58.495-58.435-57.535-63.948.22-1.279 3.479-3.975 3.479-3.975" transform="translate(-.009 -.283)" style="stroke:#222;stroke-linecap:round;stroke-linejoin:round;stroke-width:.4px;fill:none"/>
        <path data-name="패스 15635" d="m314.134 347.033-33.757-.519-.78-.02" transform="translate(-.122 -.365)" style="stroke:#222;stroke-linecap:round;stroke-linejoin:round;stroke-width:.4px;fill:none"/>
        <path data-name="패스 15636" d="M317.429 354.025c-.88-1.717-1.66-3.5-2.46-5.252" transform="translate(-.137 -.367)" style="stroke:#222;stroke-linecap:round;stroke-linejoin:round;stroke-width:.4px;fill:none"/>
        <path data-name="패스 15637" d="M9.582 124.241c-.64.36-1.279.739-1.88 1.1" transform="translate(-.003 -.131)" style="stroke:#222;stroke-linecap:round;stroke-linejoin:round;stroke-width:.4px;fill:none"/>
        <path data-name="패스 15638" d="M13.4 122.142c-.94.479-1.9 1-2.86 1.537" transform="translate(-.005 -.129)" style="stroke:#222;stroke-linecap:round;stroke-linejoin:round;stroke-width:.4px;fill:none"/>
        <path data-name="패스 15639" d="M18.847 253.309a10.2 10.2 0 0 0 1.719.16c3.939 0 7.059-2.5 6.76-8.148-.32-6.45-1.84-36.946-1.84-58.7s1.52-52.245 1.84-58.7c.3-5.652-2.821-8.148-6.76-8.148" transform="translate(-.008 -.126)" style="stroke:#222;stroke-linecap:round;stroke-linejoin:round;stroke-width:.4px;fill:none"/>
        <path data-name="패스 15640" d="M5.08 126.94a3.245 3.245 0 0 1-.08.38c-.02.12-.04.24-.06.38C2.9 138.862.2 166.842.2 186.634" transform="translate(0 -.134)" style="stroke:#222;stroke-linecap:round;stroke-linejoin:round;stroke-width:.4px;fill:none"/>
        <path data-name="패스 15641" d="M24.006 104.834s-3.26-2.676-3.479-3.974c-.961-5.492 20.818-49.329 57.535-63.929a69.43 69.43 0 0 1 5.4-1.9" transform="translate(-.009 -.037)" style="stroke:#222;stroke-linecap:round;stroke-linejoin:round;stroke-width:.4px;fill:none"/>
        <path data-name="패스 15642" d="M5.862 123.66a27.308 27.308 0 0 0-.78 3.256c.8-.5 1.7-1.039 2.62-1.6.6-.36 1.239-.738 1.879-1.1.32-.2.641-.38.961-.559.96-.539 1.919-1.079 2.86-1.537a22.04 22.04 0 0 1 5.44-2.2 10.2 10.2 0 0 1 1.719-.159c1.26-3.515 3.939-10.565 6.219-15.857" transform="translate(-.002 -.109)" style="stroke:#222;stroke-linecap:round;stroke-linejoin:round;stroke-width:.4px;fill:none"/>
        <path data-name="패스 15643" d="M64.119 41.113C48.4 49.062 22.262 77.361 11.224 114.287" transform="translate(-.005 -.043)" style="stroke:#222;stroke-linecap:round;stroke-linejoin:round;stroke-width:.4px;fill:none"/>
        <path data-name="패스 15644" d="m824.306 42.707 9.819-4.593s21.579 6.83 29.9 17.974c8.339 11.143 17.139 37.605 17.279 38.045l-11.319-9.226s-7-17.376-13.4-25.563c-6.401-8.169-32.279-16.637-32.279-16.637z" transform="translate(-.359 -.04)" style="stroke:#222;stroke-linecap:round;stroke-linejoin:round;stroke-width:.4px;fill:none"/>
        <path data-name="패스 15645" d="m870 288.233 10.419-7.749S892.9 252.264 892.9 186.6c0-65.686-11.579-92.407-11.579-92.407" transform="translate(-.379 -.099)" style="stroke:#222;stroke-linecap:round;stroke-linejoin:round;stroke-width:.4px;fill:none"/>
        <path data-name="패스 15646" d="M824.306 42.712c10.1 4.573 25.538 19.188 33.677 37.288 8.559 19.053 12.439 84.4 12.439 106.547s-3.879 87.494-12.439 106.546c-8.139 18.094-23.578 32.694-33.677 37.287" transform="translate(-.359 -.045)" style="stroke:#222;stroke-linecap:round;stroke-linejoin:round;stroke-width:.4px;fill:none"/>
        <path data-name="패스 15647" d="M881.309 94.131c-.02-.18-5.62-30.336-16.239-40.3a146.835 146.835 0 0 0-22.8-17.535c-.02 0-.02-.02-.04-.02" transform="translate(-.367 -.038)" style="stroke:#222;stroke-linecap:round;stroke-linejoin:round;stroke-width:.4px;fill:none"/>
        <path data-name="패스 15648" d="M330.375 26.256 484.662 23.6l185.163 3.715h.02s107.29 7.09 121.509 9.346 28.538 4.573 32.737 6.032" transform="translate(-.144 -.025)" style="stroke:#222;stroke-linecap:round;stroke-linejoin:round;stroke-width:.4px;fill:none"/>
        <path data-name="패스 15649" d="M331.754 22.48c-.48 1.259-.96 2.5-1.3 3.555" transform="translate(-.144 -.024)" style="stroke:#222;stroke-linecap:round;stroke-linejoin:round;stroke-width:.4px;fill:none"/>
        <path data-name="패스 15650" d="M333 19.122c-.141.42-.3.879-.48 1.338" transform="translate(-.145 -.02)" style="stroke:#222;stroke-linecap:round;stroke-linejoin:round;stroke-width:.4px;fill:none"/>
        <path data-name="패스 15651" d="M843.133 336.759a128.7 128.7 0 0 0 21.318-16.636c10.28-9.646 15.6-37.426 15.939-39.343a.35.35 0 0 0 .02-.1" transform="translate(-.367 -.295)" style="stroke:#222;stroke-linecap:round;stroke-linejoin:round;stroke-width:.4px;fill:none"/>
        <path data-name="패스 15652" d="M331.355 349.833c.56 1.438 1.179 2.916 1.64 4.413" transform="translate(-.144 -.368)" style="stroke:#222;stroke-linecap:round;stroke-linejoin:round;stroke-width:.4px;fill:none"/>
        <path data-name="패스 15653" d="M863.808 317.286c-8.319 11.144-29.9 17.974-29.9 17.974l-9.82-4.593c-4.2 1.457-18.678 3.694-32.9 5.951s-121.509 9.367-121.509 9.367l-.861.02L484.5 349.7l-1.559-.02-152.487-2.357" transform="translate(-.144 -.334)" style="stroke:#222;stroke-linecap:round;stroke-linejoin:round;stroke-width:.4px;fill:none"/>
        <path data-name="패스 15654" d="M387.855 294.342c8.819-1.977 52.675-11.044 119.89-11.044 69.274 0 141.647 3.975 153.146 4.634v-.02" transform="translate(-.169 -.298)" style="stroke:#222;stroke-linecap:round;stroke-linejoin:round;stroke-width:.4px;fill:none"/>
        <path data-name="패스 15655" d="m660.71 84.569 2-.16-.24-.3c-.8.04-79.573 4.713-154.727 4.713-66.614 0-110.27-8.887-119.65-10.983" transform="translate(-.169 -.082)" style="stroke:#222;stroke-linecap:round;stroke-linejoin:round;stroke-width:.4px;fill:none"/>
        <path data-name="패스 15656" d="M637.761 356.682h.02c11.779-3.655 26.817-8.428 30.318-10.105a3.749 3.749 0 0 0 .86-.559c4.279-3.594-2.74-14.579-2.74-14.579s-.18-.539-.48-1.319" transform="translate(-.278 -.347)" style="stroke:#222;stroke-linecap:round;stroke-linejoin:round;stroke-width:.4px;fill:none"/>
        <path data-name="패스 15657" d="M487.965 335.159v.02a78.463 78.463 0 0 1-4.96 14.519 76.886 76.886 0 0 1-3.16 6.151" transform="translate(-.209 -.353)" style="stroke:#222;stroke-linecap:round;stroke-linejoin:round;stroke-width:.4px;fill:none"/>
        <path data-name="패스 15658" d="M338.969.329a16.119 16.119 0 0 0-11.1 2.776c-2.44 1.6-6.5 8.508-10.438 16.237" transform="translate(-.138)" style="stroke:#222;stroke-linecap:round;stroke-linejoin:round;stroke-width:.4px;fill:none"/>
        <path data-name="패스 15659" d="M337.937 3.627a3.644 3.644 0 0 1 .16-.5" transform="translate(-.147 -.003)" style="stroke:#222;stroke-linecap:round;stroke-linejoin:round;stroke-width:.4px;fill:none"/>
        <path data-name="패스 15660" d="M335.716 10.582c.34-1.059.66-2.077.96-3.016" transform="translate(-.146 -.008)" style="stroke:#222;stroke-linecap:round;stroke-linejoin:round;stroke-width:.4px;fill:none"/>
        <path data-name="패스 15661" d="M665.3 43.224a12.56 12.56 0 0 0 1.54-2.636c1.619-3.934 4.379-10.9 3.12-13.281a1.443 1.443 0 0 0-.721-.7c-1.979-.838-23.7-6.55-35.277-9.546" transform="translate(-.276 -.018)" style="stroke:#222;stroke-linecap:round;stroke-linejoin:round;stroke-width:.4px;fill:none"/>
        <path data-name="패스 15662" d="M320.931 40.552a11.675 11.675 0 0 0 4.52-.939" transform="translate(-.14 -.042)" style="stroke:#222;stroke-linecap:round;stroke-linejoin:round;stroke-width:.4px;fill:none"/>
        <path data-name="패스 15663" d="M307.906 39.754c-.54 1.278-1.319 3.256-1.74 4.313-.06.16-.12.28-.16.4" transform="translate(-.133 -.042)" style="stroke:#222;stroke-linecap:round;stroke-linejoin:round;stroke-width:.4px;fill:none"/>
        <path data-name="패스 15664" d="M276.776 20c.46 1.318 1.66 3.974 3.06 6.93 2 4.215 4.4 9.047 5.6 11.424.14.3.28.579.38.779.24.459.36.718.36.718" transform="translate(-.121 -.021)" style="stroke:#222;stroke-linecap:round;stroke-linejoin:round;stroke-width:.4px;fill:none"/>
        <path data-name="패스 15665" d="m480.107 17.522 4.62 6.072 2.88 14.6v.02l.92-.02" transform="translate(-.209 -.018)" style="stroke:#222;stroke-linecap:round;stroke-linejoin:round;stroke-width:.4px;fill:none"/>
        <path data-name="선 71" transform="translate(307.773 19.341)" style="stroke:#222;stroke-linecap:round;stroke-linejoin:round;stroke-width:.4px;fill:none" d="M9.519 0 0 20.371"/>
        <path data-name="패스 15666" d="m325.453 39.573 4.92-13.341.08-.22 1.3-3.554.76-2.018.481-1.338.18-.539c.88-2.756 1.739-5.492 2.54-7.989.34-1.058.66-2.057.96-3.016.48-1.5.9-2.835 1.259-3.934a3.644 3.644 0 0 1 .16-.5c.541-1.737.881-2.8.881-2.8" transform="translate(-.142)" style="stroke:#222;stroke-linecap:round;stroke-linejoin:round;stroke-width:.4px;fill:none"/>
        <path data-name="패스 15667" d="m317.426 354.01-2.46-5.253-.82-1.737-6.239-13.381" transform="translate(-.134 -.351)" style="stroke:#222;stroke-linecap:round;stroke-linejoin:round;stroke-width:.4px;fill:none"/>
        <path data-name="패스 15668" d="m325.453 333.779 5 13.561.9 2.476 1.64 4.413v.02" transform="translate(-.142 -.351)" style="stroke:#222;stroke-linecap:round;stroke-linejoin:round;stroke-width:.4px;fill:none"/>
    </g>
</svg>
