<svg xmlns="http://www.w3.org/2000/svg" width="16" height="17" viewBox="0 0 16 17">
    <g data-name="그룹 1382">
        <path data-name="패스 15458" d="M14.457 1.661a3.92 3.92 0 0 1 2.617 1.205A3.663 3.663 0 0 1 18.5 5.429a3.629 3.629 0 0 1-1.269 2.6l-7.214 7.36a3 3 0 0 1-1.48.772l-2.837.471a2.345 2.345 0 0 1-.383.032 1.809 1.809 0 0 1-1.377-.585 1.844 1.844 0 0 1-.426-1.463l.325-2.747v-.009a3.023 3.023 0 0 1 .718-1.475l7.218-7.364a3.8 3.8 0 0 1 2.682-1.36zM5.315 15.727a1.406 1.406 0 0 0 .23-.02l2.831-.466a2.1 2.1 0 0 0 .958-.5l.006-.006 7.217-7.363a2.777 2.777 0 0 0 1-1.922 2.844 2.844 0 0 0-1.113-1.89 3.091 3.091 0 0 0-1.987-.96 2.9 2.9 0 0 0-2.014 1.079l-7.216 7.362a2.118 2.118 0 0 0-.459.944l-.325 2.741a.91.91 0 0 0 .195.731.886.886 0 0 0 .677.27z" transform="translate(-3.497 -1.661)" style="fill:#fd6908"/>
        <path data-name="패스 15459" d="M16.326 9.83h-.047A5.558 5.558 0 0 1 11.4 5.095a.471.471 0 0 1 .384-.539.462.462 0 0 1 .526.394 4.626 4.626 0 0 0 4.066 3.939.473.473 0 0 1-.046.942z" transform="translate(-4.486 -1.945)" style="fill:#fd6908"/>
    </g>
    <path data-name="패스 15460" d="M18.029 22.5H2.971a.5.5 0 0 1 0-1h15.058a.5.5 0 0 1 0 1z" transform="translate(-2.5 -5.5)" style="fill:#fd6908"/>
</svg>
