<svg xmlns="http://www.w3.org/2000/svg" width="28" height="24" viewBox="0 0 28 24">
    <path data-name="패스 1403" d="M410.333 974.408H394.3l-2.588-11.387h22.245zm-15.271-.98h14.574l3-9.428h-19.717z" transform="translate(-385.957 -959.171)" style="fill:#222"/>
    <path data-name="패스 1404" d="M393.349 964.182a.482.482 0 0 1-.465-.37l-.8-3.257h-4.571a.49.49 0 0 1 0-.98h5.319l.987 4a.491.491 0 0 1-.348.595.471.471 0 0 1-.122.012z" style="fill:#222" transform="translate(-387.029 -959.576)"/>
    <path data-name="타원 50" d="M2.267.98A1.332 1.332 0 0 0 .959 2.332a1.332 1.332 0 0 0 1.308 1.353 1.332 1.332 0 0 0 1.308-1.353A1.332 1.332 0 0 0 2.267.98m0-.98a2.3 2.3 0 0 1 2.267 2.332 2.3 2.3 0 0 1-2.267 2.332A2.3 2.3 0 0 1 0 2.332 2.3 2.3 0 0 1 2.267 0z" transform="translate(9.792 19.335)" style="fill:#222"/>
    <path data-name="타원 51" d="M2.267.98A1.332 1.332 0 0 0 .959 2.332a1.332 1.332 0 0 0 1.308 1.353 1.332 1.332 0 0 0 1.308-1.353A1.332 1.332 0 0 0 2.267.98m0-.98a2.3 2.3 0 0 1 2.267 2.332 2.3 2.3 0 0 1-2.267 2.332A2.3 2.3 0 0 1 0 2.332 2.3 2.3 0 0 1 2.267 0z" transform="translate(19.086 19.335)" style="fill:#222"/>
    <path data-name="패스 1405" d="M409.607 976.911h-12.086a2.971 2.971 0 0 1-2.671-1.484 4.042 4.042 0 0 1-.523-1.447.488.488 0 0 1 .416-.547.482.482 0 0 1 .535.423 3.071 3.071 0 0 0 .4 1.083 2.032 2.032 0 0 0 1.839.993h12.087a.49.49 0 0 1 0 .98z" transform="translate(-385.987 -958.725)" style="fill:#222"/>
</svg>
