<svg xmlns="http://www.w3.org/2000/svg" width="18" height="16" viewBox="0 0 18 16">
    <path d="M15.446 3a4.58 4.58 0 0 1 3.222 1.316A4.45 4.45 0 0 1 20 7.489v7.022A4.524 4.524 0 0 1 15.446 19H6.554A4.523 4.523 0 0 1 2 14.511V7.489A4.518 4.518 0 0 1 6.554 3zm1.432 5.813.072-.071a.681.681 0 0 0-.01-.889.76.76 0 0 0-.476-.231.689.689 0 0 0-.5.178L11.9 11a1.423 1.423 0 0 1-1.8 0L6.05 7.8a.691.691 0 0 0-.9.062.673.673 0 0 0-.064.889l.118.116 4.1 3.156a2.862 2.862 0 0 0 3.518 0z" transform="translate(-2 -3)" style="fill:#222;fill-rule:evenodd"/>
</svg>
