<svg xmlns="http://www.w3.org/2000/svg" width="16" height="18" viewBox="0 0 16 18">
    <path data-name="패스 15249" d="M5.26 3.1a.866.866 0 0 0-.86.909V6.1a2.072 2.072 0 0 0 .536 1.1l.018.018 3.535 3.637q.03.031.057.064a4.463 4.463 0 0 1 .97 2.543v4.819a.858.858 0 0 0 .906.816.884.884 0 0 0 .455-.123l1.293-.812.026-.016a1.084 1.084 0 0 0 .343-.683v-3.91a3.925 3.925 0 0 1 1.286-2.853l3.964-3.424a2.419 2.419 0 0 0 .611-1.357v-2a.841.841 0 0 0-.86-.819H5.26m0-1h12.279A1.845 1.845 0 0 1 19.4 3.918v2a3.358 3.358 0 0 1-.93 2.091l-4 3.455a2.929 2.929 0 0 0-.93 2.091v3.91a2.012 2.012 0 0 1-.837 1.546l-1.3.818a1.9 1.9 0 0 1-2.884-1.546v-4.817a3.469 3.469 0 0 0-.744-1.909L4.237 7.919A2.982 2.982 0 0 1 3.4 6.1V4.009A1.865 1.865 0 0 1 5.26 2.1z" transform="translate(-3.4 -2.1)" style="fill:#222"/>
</svg>
