<svg xmlns="http://www.w3.org/2000/svg" width="20" height="20" viewBox="0 0 20 20">
    <path data-name="패스 15507" d="M15.238 22.4H8.722c-2.424 0-4.06-.523-5.148-1.646S1.98 17.943 1.98 15.441v-.134a7.814 7.814 0 0 1 1.273-4.939 5.61 5.61 0 0 1 4.154-1.956.48.48 0 0 1 .518.443.487.487 0 0 1-.43.534A4.673 4.673 0 0 0 4 10.981a7.008 7.008 0 0 0-1.064 4.326v.134c0 2.225.418 3.692 1.316 4.619s2.319 1.358 4.474 1.358h6.516c2.155 0 3.576-.432 4.474-1.358s1.316-2.394 1.316-4.619v-.134a6.976 6.976 0 0 0-1.08-4.348 4.739 4.739 0 0 0-3.56-1.579.487.487 0 0 1-.434-.531.481.481 0 0 1 .512-.449 5.675 5.675 0 0 1 4.218 1.939 7.781 7.781 0 0 1 1.292 4.966v.134c0 2.5-.507 4.19-1.594 5.313S17.662 22.4 15.238 22.4z" transform="translate(-1.98 -2.399)" style="fill:#292d32"/>
    <path data-name="패스 15508" d="M12 16.752a.5.5 0 0 1-.5-.5V3.62a.5.5 0 1 1 1 0v12.632a.5.5 0 0 1-.5.5z" transform="translate(-1.995 -1.941)" style="fill:#292d32"/>
    <path data-name="패스 15509" d="M15.7 6.526a.5.5 0 0 1-.354-.146l-3.17-3.173L9 6.38a.5.5 0 0 1-.7-.707l3.526-3.526a.5.5 0 0 1 .707 0l3.526 3.526a.5.5 0 0 1-.354.854z" transform="translate(-2.171 -2)" style="fill:#292d32"/>
</svg>
