<svg xmlns="http://www.w3.org/2000/svg" width="20" height="20" viewBox="0 0 20 20">
    <path data-name="패스 15500" d="M15.31 21.93a1.388 1.388 0 0 1-.8-.254l-4.11-2.862H6.738a5.1 5.1 0 0 1-3.8-1.516A5.558 5.558 0 0 1 1.5 13.359V7.385a5.558 5.558 0 0 1 1.442-3.939 5.1 5.1 0 0 1 3.8-1.516h9.524a5.1 5.1 0 0 1 3.8 1.516A5.558 5.558 0 0 1 21.5 7.385v5.974a5.558 5.558 0 0 1-1.442 3.941 4.989 4.989 0 0 1-3.32 1.5v1.662a1.474 1.474 0 0 1-.432 1.055 1.427 1.427 0 0 1-.996.413zM6.738 2.882A4.173 4.173 0 0 0 3.63 4.1a4.629 4.629 0 0 0-1.177 3.28v5.974A4.629 4.629 0 0 0 3.63 16.64a4.173 4.173 0 0 0 3.108 1.222h3.81a.476.476 0 0 1 .272.085l4.238 2.948a.435.435 0 0 0 .252.083.468.468 0 0 0 .325-.139.519.519 0 0 0 .151-.38v-2.121a.476.476 0 0 1 .476-.476 4.173 4.173 0 0 0 3.108-1.222 4.629 4.629 0 0 0 1.177-3.28V7.385A4.629 4.629 0 0 0 19.37 4.1a4.173 4.173 0 0 0-3.108-1.222z" transform="translate(-1.5 -1.93)" style="fill:#222"/>
    <path data-name="패스 15501" d="M17 8.5H7a.5.5 0 0 1 0-1h10a.5.5 0 0 1 0 1z" transform="translate(-2 -1.8)" style="fill:#222"/>
    <path data-name="패스 15502" d="M13 13.5H7a.5.5 0 0 1 0-1h6a.5.5 0 0 1 0 1z" transform="translate(-1.857 -2.05)" style="fill:#222"/>
</svg>
