<svg xmlns="http://www.w3.org/2000/svg" width="22" height="22" viewBox="0 0 22 22">
    <circle data-name="타원 40" cx="11" cy="11" r="11" style="fill:#348de7"/>
    <path data-name="합치기 2" d="M6641.209 18751.107a.748.748 0 0 1-.188-.707c.08-.582.2-1.186.343-1.8s.306-1.211.466-1.779.325-1.121.484-1.643.311-.994.442-1.4c.123-.367.259-.771.414-1.215s.325-.9.508-1.359.367-.908.551-1.352.372-.855.546-1.227a1 1 0 0 1 .941-.594l.01-.029v.029a.922.922 0 0 1 .485.174.966.966 0 0 1 .344.467l.014.037a17.175 17.175 0 0 1 .476 2.391c.132.965.245 2 .33 3.078s.165 2.137.23 3.166.122 1.926.165 2.654a1.715 1.715 0 0 1-.08.725.809.809 0 0 1-.56.471.715.715 0 0 1-.2.023.734.734 0 0 1-.541-.225 1.213 1.213 0 0 1-.3-.744v-.02c-.028-.334-.052-.705-.08-1.105l-.08-1.2c-.028-.4-.052-.791-.08-1.168l-.042-.564c-.278.01-.588.02-.922.037-.391.02-.753.047-1.073.09-.085.277-.169.541-.245.795-.108.344-.212.7-.32 1.055s-.212.738-.315 1.143-.211.857-.315 1.342v.02a.837.837 0 0 1-.367.527.885.885 0 0 1-.484.15.783.783 0 0 1-.557-.243zm3.784-8.447a58.427 58.427 0 0 0-.668 1.92l.579-.033c.25-.014.494-.023.729-.023h.066a37.474 37.474 0 0 0-.193-2.1 37.345 37.345 0 0 0-.113-.838c-.142.373-.273.727-.4 1.074z" transform="translate(-6634 -18734.025)" style="fill:#fff"/>
</svg>
