<svg xmlns="http://www.w3.org/2000/svg" width="22" height="20" viewBox="0 0 22 20">
    <path data-name="패스 15525" d="M12.639 13.921a2.989 2.989 0 0 1-1.864-.654L5.8 9.25a.524.524 0 0 1-.092-.7.446.446 0 0 1 .654-.1l4.968 4.015a2.091 2.091 0 0 0 2.61 0l4.925-4.013a.446.446 0 0 1 .654.1.524.524 0 0 1-.089.7l-4.927 4.015a2.989 2.989 0 0 1-1.864.654z" transform="translate(-1.619 -3.206)" style="fill:#130f26"/>
    <path data-name="패스 15526" d="M17.681 22.5H7.319a5.542 5.542 0 0 1-4.227-1.889A6.741 6.741 0 0 1 1.5 16.139V8.87a6.745 6.745 0 0 1 1.6-4.48A5.56 5.56 0 0 1 7.335 2.5h10.33A5.56 5.56 0 0 1 21.9 4.391a6.745 6.745 0 0 1 1.6 4.48v7.268a6.741 6.741 0 0 1-1.592 4.473 5.542 5.542 0 0 1-4.227 1.888zm-10.347-.952h10.347a4.536 4.536 0 0 0 3.507-1.563 5.794 5.794 0 0 0 1.355-3.846V8.87a5.8 5.8 0 0 0-1.36-3.852 4.555 4.555 0 0 0-3.519-1.566H7.335a4.555 4.555 0 0 0-3.519 1.566A5.8 5.8 0 0 0 2.457 8.87v7.268a5.794 5.794 0 0 0 1.355 3.846 4.537 4.537 0 0 0 3.507 1.563z" transform="translate(-1.5 -2.5)" style="fill:#130f26"/>
</svg>
