<svg xmlns="http://www.w3.org/2000/svg" width="15" height="15" viewBox="0 0 15 15">
    <path data-name="타원 27" d="M6.153-.5A6.653 6.653 0 1 1-.5 6.153 6.661 6.661 0 0 1 6.153-.5zm0 12.339A5.685 5.685 0 1 0 .468 6.153a5.692 5.692 0 0 0 5.685 5.686z" transform="translate(.5 .5)" style="fill:gray"/>
    <path data-name="패스 15256" d="M19.936 20.924a1.023 1.023 0 0 1-.689-.3L17.67 18.78a.842.842 0 0 1-.062-1.178.754.754 0 0 1 1.075 0l1.984 1.587a1.045 1.045 0 0 1 .225 1.109 1.034 1.034 0 0 1-.914.659z" transform="translate(-5.962 -5.958)" style="fill:gray"/>
</svg>
