<svg xmlns="http://www.w3.org/2000/svg" width="22" height="22" viewBox="0 0 22 22">
    <circle data-name="타원 40" cx="11" cy="11" r="11" style="fill:#d934e7"/>
    <path data-name="합치기 1" d="M6683.436 18750.934a2.012 2.012 0 0 1-.4-1.717v-.01l1.3-8.908a2.583 2.583 0 0 1 .306-.861 2.844 2.844 0 0 1 .607-.744 2.987 2.987 0 0 1 .894-.521 2.937 2.937 0 0 1 1.012-.17h.141a1.8 1.8 0 0 1 1.365.625 2.408 2.408 0 0 1 .494 1.225 5.072 5.072 0 0 1-.019 1.332c-.066.432-.137.822-.221 1.156v.006a5.255 5.255 0 0 1-.537 1.355c-.132.211-.264.428-.4.635a3.3 3.3 0 0 1 .532 1.3 5.9 5.9 0 0 1 .075 1.566 5.545 5.545 0 0 1-1.068 2.764 4.345 4.345 0 0 1-1.11 1.021 3.188 3.188 0 0 1-1.511.475h-.146a1.732 1.732 0 0 1-1.314-.529zm2.692-4.711a8.889 8.889 0 0 1-1.083.734l-.325 2.16c-.066.447.024.594.038.617s.033.041.108.041a.8.8 0 0 0 .094 0 1.589 1.589 0 0 0 .673-.287 2.428 2.428 0 0 0 .583-.6 3.447 3.447 0 0 0 .428-.842 4.358 4.358 0 0 0 .226-.975v-.02a2.351 2.351 0 0 0-.071-1.068 1.717 1.717 0 0 0-.089-.244c-.183.161-.376.32-.583.484zm.64-6.508a.97.97 0 0 0-.325.207 1.307 1.307 0 0 0-.25.338 1.233 1.233 0 0 0-.132.377l-.649 4.029c.019-.02.038-.033.057-.053a6.553 6.553 0 0 0 .819-.9 7.383 7.383 0 0 0 .6-.941 4.893 4.893 0 0 0 .343-.828c.047-.174.1-.41.16-.711a3.627 3.627 0 0 0 .061-.809 1.68 1.68 0 0 0-.141-.617.222.222 0 0 0-.207-.131.607.607 0 0 0-.1-.01.6.6 0 0 0-.236.049z" transform="translate(-6675.094 -18733.732)" style="fill:#fff"/>
</svg>
