<svg xmlns="http://www.w3.org/2000/svg" width="36" height="36" viewBox="0 0 36 36">
    <g transform="translate(-1403 -3189)">
        <circle data-name="타원 13" cx="18" cy="18" r="18" transform="translate(1403 3189)" style="fill:#c5c5c5"/>
        <path data-name="Icon_instagram" d="M9 6.622a4.614 4.614 0 1 0 4.614 4.614A4.607 4.607 0 0 0 9 6.622zm0 7.614a3 3 0 1 1 3-3 3.005 3.005 0 0 1-3 2.999zm5.879-7.8A1.076 1.076 0 1 1 13.8 5.357a1.074 1.074 0 0 1 1.076 1.076zm3.056 1.092a5.326 5.326 0 0 0-1.454-3.771A5.361 5.361 0 0 0 12.707 2.3c-1.486-.084-5.939-.084-7.425 0a5.353 5.353 0 0 0-3.771 1.45A5.343 5.343 0 0 0 .058 7.521c-.084 1.486-.084 5.939 0 7.425a5.326 5.326 0 0 0 1.454 3.771 5.368 5.368 0 0 0 3.77 1.453c1.486.084 5.939.084 7.425 0a5.326 5.326 0 0 0 3.771-1.454 5.361 5.361 0 0 0 1.454-3.771c.084-1.486.084-5.935 0-7.421zm-1.923 9.012a3.037 3.037 0 0 1-1.712 1.711c-1.185.47-4 .361-5.3.361s-4.124.1-5.3-.361a3.037 3.037 0 0 1-1.719-1.711c-.47-1.185-.361-4-.361-5.3s-.1-4.124.361-5.3a3.037 3.037 0 0 1 1.711-1.72c1.185-.47 4-.361 5.3-.361s4.124-.1 5.3.361a3.037 3.037 0 0 1 1.711 1.711c.47 1.185.361 4 .361 5.3s.118 4.129-.352 5.309z" transform="translate(1412.005 3195.762)" style="fill:#fff"/>
    </g>
</svg>
