<svg xmlns="http://www.w3.org/2000/svg" width="22" height="22" viewBox="0 0 22 22">
    <circle data-name="타원 40" cx="11" cy="11" r="11" style="fill:#e7a434"/>
    <path data-name="합치기 4" d="M6564.823 18750.684a.887.887 0 0 1-.118-.719c.056-.311.146-.791.273-1.422s.254-1.369.4-2.211.283-1.756.414-2.734l.1-.8c-.16.25-.315.49-.471.721a23.088 23.088 0 0 1-1.67 2.174 2.012 2.012 0 0 1-1.073.734.932.932 0 0 1-.165.014c-.414 0-.772-.287-1.059-.852a23.159 23.159 0 0 1-1.134-2.621c-.108-.3-.221-.607-.339-.908l-.042.283c-.132.836-.268 1.713-.414 2.629s-.3 1.846-.447 2.758-.3 1.766-.447 2.518v.023a.826.826 0 0 1-.4.557.85.85 0 0 1-.541.088.83.83 0 0 1-.668-.945c.057-.461.127-1.006.2-1.619s.169-1.266.263-1.943.193-1.373.292-2.08.207-1.387.306-2.041.2-1.268.3-1.826.184-1.055.273-1.445a1.077 1.077 0 0 1 .33-.621.967.967 0 0 1 .6-.254 1 1 0 0 1 .612.164 1.151 1.151 0 0 1 .428.5c.174.381.362.828.555 1.318s.376 1 .555 1.52.367 1.035.556 1.549c.141.385.282.752.428 1.092a26.152 26.152 0 0 0 1.576-2.293 73.041 73.041 0 0 0 1.878-3.236.808.808 0 0 1 .343-.594.97.97 0 0 1 .6-.16 1 1 0 0 1 .6.254.893.893 0 0 1 .3.678 26.079 26.079 0 0 1-.179 3.289 54.76 54.76 0 0 1-1.063 6.189 84.654 84.654 0 0 1-.447 1.844 1 1 0 0 1-.334.537.859.859 0 0 1-.551.207.719.719 0 0 1-.62-.316z" transform="translate(-6551.5 -18733.5)" style="fill:#fff"/>
</svg>
