<svg xmlns="http://www.w3.org/2000/svg" width="20" height="20" viewBox="0 0 20 20">
    <path data-name="패스 15515" d="M21.024 22.5H1.976a.5.5 0 0 1 0-1h19.048a.5.5 0 0 1 0 1z" transform="translate(-1.5 -2.5)" style="fill:#222"/>
    <path data-name="패스 15516" d="M6.763 1.5h9.474c2.749 0 4.263 1.522 4.263 4.286v15.238a.475.475 0 0 1-.474.476H2.974a.475.475 0 0 1-.474-.476V5.786C2.5 3.022 4.014 1.5 6.763 1.5zm12.79 19.048V5.786a3.57 3.57 0 0 0-.714-2.386 3.267 3.267 0 0 0-2.6-.951H6.763a3.267 3.267 0 0 0-2.6.951 3.57 3.57 0 0 0-.714 2.383v14.765z" transform="translate(-1.5 -1.5)" style="fill:#222"/>
    <path data-name="패스 15517" d="M10 17H7a.5.5 0 0 1 0-1h3a.5.5 0 0 1 0 1z" transform="translate(-1.794 -2.225)" style="fill:#222"/>
    <path data-name="패스 15518" d="M17 17h-3a.5.5 0 0 1 0-1h3a.5.5 0 0 1 0 1z" transform="translate(-2.206 -2.225)" style="fill:#222"/>
    <path data-name="패스 15519" d="M10 12.5H7a.5.5 0 0 1 0-1h3a.5.5 0 0 1 0 1z" transform="translate(-1.794 -2)" style="fill:#222"/>
    <path data-name="패스 15520" d="M17 12.5h-3a.5.5 0 0 1 0-1h3a.5.5 0 0 1 0 1z" transform="translate(-2.206 -2)" style="fill:#222"/>
    <path data-name="패스 15521" d="M10 8H7a.5.5 0 0 1 0-1h3a.5.5 0 0 1 0 1z" transform="translate(-1.794 -1.775)" style="fill:#222"/>
    <path data-name="패스 15522" d="M17 8h-3a.5.5 0 0 1 0-1h3a.5.5 0 0 1 0 1z" transform="translate(-2.206 -1.775)" style="fill:#222"/>
</svg>
