<svg xmlns="http://www.w3.org/2000/svg" width="20" height="20" viewBox="0 0 20 20">
    <path data-name="타원 218" d="M9.5-.5a10 10 0 1 1-10 10 10.011 10.011 0 0 1 10-10zm0 19.048A9.048 9.048 0 1 0 .452 9.5 9.058 9.058 0 0 0 9.5 18.548z" transform="translate(.5 .5)" style="fill:#222"/>
    <path data-name="패스 15504" d="M12 15.01a.5.5 0 0 1-.354-.146l-3-3a.5.5 0 1 1 .707-.707L12 13.8l2.646-2.646a.5.5 0 1 1 .707.707l-3 3a.5.5 0 0 1-.353.149z" transform="translate(-2 -1.263)" style="fill:#222"/>
    <path data-name="패스 15505" d="M12 15.01a.5.5 0 0 1-.5-.5v-8a.5.5 0 0 1 1 0v8a.5.5 0 0 1-.5.5z" transform="translate(-2 -1.876)" style="fill:#222"/>
    <path data-name="패스 15506" d="M10.808 17.985A13.063 13.063 0 0 1 5.8 16.978a.515.515 0 0 1-.266-.644.446.446 0 0 1 .589-.291 12.133 12.133 0 0 0 9.378 0 .446.446 0 0 1 .589.291.515.515 0 0 1-.266.644 13.063 13.063 0 0 1-5.016 1.007z" transform="translate(-.808 -2.263)" style="fill:#222"/>
</svg>
