<svg xmlns="http://www.w3.org/2000/svg" width="22" height="20" viewBox="0 0 22 20">
    <defs>
        <clipPath id="b352tc51wa">
            <path data-name="사각형 2921" style="fill:none" d="M0 0h22v20H0z"/>
        </clipPath>
    </defs>
    <g data-name="그룹 1884" style="clip-path:url(#b352tc51wa)">
        <path data-name="패스 33049" d="M12.024 8.646H5.755a.476.476 0 1 1 0-.952h6.269a.476.476 0 1 1 0 .952" style="fill:#222"/>
        <path data-name="패스 33050" d="M.478 9.6A.477.477 0 0 1 0 9.123V4.317A4.33 4.33 0 0 1 4.334 0h5.872a4.666 4.666 0 0 1 3.038 1.041 3.718 3.718 0 0 1 1.295 2.88.479.479 0 0 1-.957 0c0-1.747-1.389-2.968-3.377-2.968H4.334A3.374 3.374 0 0 0 .956 4.317v4.806a.477.477 0 0 1-.478.477" style="fill:#222"/>
        <path data-name="패스 33051" d="M4.687 3.445H15.22a4.669 4.669 0 0 1 4.687 4.637v1.506a.477.477 0 0 1-.479.476H18.3a1.64 1.64 0 0 0-1.176.482l-.011.012a1.592 1.592 0 0 0-.435 1.593 1.817 1.817 0 0 0 1.781 1.227h.978a.477.477 0 0 1 .478.476v1.509A4.668 4.668 0 0 1 15.225 20H4.687A4.669 4.669 0 0 1 0 15.363V8.082a4.669 4.669 0 0 1 4.687-4.637m14.267 5.667v-1.03a3.715 3.715 0 0 0-3.73-3.682H4.687a3.714 3.714 0 0 0-3.73 3.682v7.283a3.715 3.715 0 0 0 3.73 3.685H15.22a3.716 3.716 0 0 0 3.731-3.685v-1.032h-.5a2.746 2.746 0 0 1-2.7-1.933 2.623 2.623 0 0 1 1.882-3.2 2.669 2.669 0 0 1 .667-.085z" style="fill:#222"/>
        <path data-name="패스 33052" d="M18.3 9.115h2.142A1.548 1.548 0 0 1 22 10.652V12.8a1.547 1.547 0 0 1-1.554 1.537H18.43a2.7 2.7 0 0 1-2.73-2.386 2.622 2.622 0 0 1 2.4-2.827q.1-.009.2-.009m2.142 4.265a.592.592 0 0 0 .6-.585v-2.143a.593.593 0 0 0-.6-.585H18.3a1.607 1.607 0 0 0-1.162.477l-.008.008a1.6 1.6 0 0 0-.485 1.31v.006a1.735 1.735 0 0 0 1.78 1.508z" style="fill:#222"/>
    </g>
</svg>
