<svg xmlns="http://www.w3.org/2000/svg" width="20" height="20" viewBox="0 0 20 20">
    <path data-name="패스 15510" d="M11.5 21.5a10 10 0 1 1 10-10 10.011 10.011 0 0 1-10 10zm0-19.048a9.048 9.048 0 1 0 9.048 9.048A9.058 9.058 0 0 0 11.5 2.452z" transform="translate(-1.5 -1.5)" style="fill:#222"/>
    <path data-name="패스 15511" d="M9 21.215a.5.5 0 0 1-.474-.337 28.083 28.083 0 0 1 0-18.042.5.5 0 0 1 .633-.311.491.491 0 0 1 .316.623 27.112 27.112 0 0 0 0 17.418.491.491 0 0 1-.316.623.506.506 0 0 1-.159.026z" transform="translate(-1.799 -1.857)" style="fill:#222"/>
    <path data-name="패스 15512" d="M15 21.215a.506.506 0 0 1-.158-.025.491.491 0 0 1-.316-.623 27.072 27.072 0 0 0 1.437-8.709 27.072 27.072 0 0 0-1.437-8.709.491.491 0 0 1 .316-.623.5.5 0 0 1 .633.311 28.042 28.042 0 0 1 1.488 9.021 28.042 28.042 0 0 1-1.488 9.021.5.5 0 0 1-.475.336z" transform="translate(-2.201 -1.857)" style="fill:#222"/>
    <path data-name="패스 15513" d="M11.821 16.962a27.837 27.837 0 0 1-8.986-1.488.5.5 0 0 1-.31-.633.489.489 0 0 1 .621-.316 26.874 26.874 0 0 0 8.675 1.437 26.874 26.874 0 0 0 8.679-1.436.489.489 0 0 1 .621.316.5.5 0 0 1-.31.633 27.837 27.837 0 0 1-8.99 1.487z" transform="translate(-1.822 -2.2)" style="fill:#222"/>
    <path data-name="패스 15514" d="M20.652 9.5a.481.481 0 0 1-.155-.026 26.91 26.91 0 0 0-17.351 0 .489.489 0 0 1-.621-.316.5.5 0 0 1 .31-.633 27.874 27.874 0 0 1 17.972 0 .5.5 0 0 1 .31.633.492.492 0 0 1-.465.342z" transform="translate(-1.822 -1.799)" style="fill:#222"/>
</svg>
