<svg xmlns="http://www.w3.org/2000/svg" width="22" height="22" viewBox="0 0 22 22">
    <circle data-name="타원 40" cx="11" cy="11" r="11" style="fill:#34e787"/>
    <path data-name="합치기 3" d="M6599.265 18750.723a1.292 1.292 0 0 1-.259-1c.019-.311.061-.738.136-1.316s.155-1.2.25-1.889.2-1.42.32-2.178.235-1.482.338-2.16.212-1.3.3-1.846.179-.969.25-1.25a1.7 1.7 0 0 1 .3-.664 1.138 1.138 0 0 1 .9-.424h3.845a.744.744 0 0 1 .64.314.8.8 0 0 1 .137.594.906.906 0 0 1-.917.754c-.193 0-.438 0-.725.008l-.922.029c-.329.014-.664.023-.988.033-.179 0-.353.008-.513.014a72.76 72.76 0 0 0-.419 2.051q-.141.735-.24 1.371a12.21 12.21 0 0 1 1.021-.049 10.533 10.533 0 0 1 1.9.17l.033.01a.805.805 0 0 1 .527.367.794.794 0 0 1 .1.555.78.78 0 0 1-.3.49.8.8 0 0 1-.607.17 11.093 11.093 0 0 0-1.628-.039c-.437.02-.875.053-1.317.1q-.1.521-.2 1.059-.127.721-.226 1.422c-.066.471-.127.922-.179 1.34-.023.2-.047.391-.066.57a19.4 19.4 0 0 0 1.233-.08 121.96 121.96 0 0 0 1.826-.17.811.811 0 0 1 .635.184.771.771 0 0 1 .263.5.781.781 0 0 1-.165.555.885.885 0 0 1-.546.344c-.127.033-.343.066-.673.117s-.673.1-1.049.133-.753.08-1.12.113c-.386.033-.678.051-.894.051a1.269 1.269 0 0 1-1.001-.353z" transform="translate(-6591.715 -18733.539)" style="fill:#fff"/>
</svg>
