<svg xmlns="http://www.w3.org/2000/svg" width="74" height="18" viewBox="0 0 74 18">
    <defs>
        <clipPath id="yq5khwxu2a">
            <path data-name="사각형 2647" style="fill:none" d="M0 0h74v18H0z"/>
        </clipPath>
        <clipPath id="stmgzi5i4b">
            <path data-name="사각형 2645" transform="translate(3.705 4)" style="fill:none" d="M0 0h11.609v13.999H0z"/>
        </clipPath>
    </defs>
    <g data-name="그룹 1656" style="clip-path:url(#yq5khwxu2a)">
        <g data-name="그룹 1655">
            <g data-name="그룹 1654" style="clip-path:url(#yq5khwxu2a)">
                <path data-name="패스 15547" d="M50.355 7.8h-1.971a.575.575 0 0 0-.471.249L45.2 12.035 44.043 8.2a.571.571 0 0 0-.543-.4h-1.94a.341.341 0 0 0-.323.45l2.17 6.345-2.04 2.87a.337.337 0 0 0-.063.2.34.34 0 0 0 .341.34h1.969a.57.57 0 0 0 .467-.243l6.554-9.424a.34.34 0 0 0-.28-.534zm-13.034 3.623a2.183 2.183 0 0 1-2.212 1.866 1.516 1.516 0 0 1-1.625-1.9 2.193 2.193 0 0 1 2.2-1.881 1.66 1.66 0 0 1 1.308.532 1.688 1.688 0 0 1 .329 1.383zm2.59-3.623H37.95a.341.341 0 0 0-.337.287l-.087.547-.137-.2a2.8 2.8 0 0 0-2.316-.819 4.5 4.5 0 0 0-4.378 3.928 3.677 3.677 0 0 0 .731 3 3.074 3.074 0 0 0 2.47.993 3.76 3.76 0 0 0 2.714-1.118l-.087.543a.307.307 0 0 0 0 .053.341.341 0 0 0 .341.34h1.766a.569.569 0 0 0 .563-.479l1.059-6.685a.327.327 0 0 0 0-.054.34.34 0 0 0-.341-.336zm-11.768.047c-.224 1.464-1.347 1.464-2.432 1.464h-.618l.434-2.733a.341.341 0 0 1 .337-.287h.283c.739 0 1.437 0 1.8.42a1.353 1.353 0 0 1 .2 1.136m-.472-3.82a3.807 3.807 0 0 1 2.984 1.041 3.134 3.134 0 0 1 .519 2.632c-.407 2.576-1.964 3.877-4.661 3.877h-1.3a.568.568 0 0 0-.562.479l-.446 2.821a.569.569 0 0 1-.563.479h-1.951a.341.341 0 0 1-.342-.34.472.472 0 0 1 0-.053L23.014 4.5a.568.568 0 0 1 .561-.478h4.1zm43.76.287L69.75 14.963a.491.491 0 0 0 0 .053.341.341 0 0 0 .341.34h1.69a.568.568 0 0 0 .562-.479L74 4.417a.308.308 0 0 0 0-.053.34.34 0 0 0-.34-.339h-1.892a.341.341 0 0 0-.337.287zM66.4 11.6a2.182 2.182 0 0 1-2.212 1.865 1.515 1.515 0 0 1-1.625-1.9 2.194 2.194 0 0 1 2.2-1.88A1.551 1.551 0 0 1 66.4 11.6zm2.716-3.8h-1.96a.34.34 0 0 0-.336.287l-.087.547-.138-.2a2.793 2.793 0 0 0-2.315-.819 4.5 4.5 0 0 0-4.38 3.928 3.68 3.68 0 0 0 .73 3 3.078 3.078 0 0 0 2.47.993 3.757 3.757 0 0 0 2.714-1.118l-.087.543a.307.307 0 0 0 0 .053.34.34 0 0 0 .341.34h1.767a.568.568 0 0 0 .561-.479l1.061-6.685a.455.455 0 0 0 0-.052.342.342 0 0 0-.337-.338zM57.36 7.769c-.223 1.464-1.346 1.464-2.432 1.464h-.618l.434-2.733a.341.341 0 0 1 .337-.287h.283c.739 0 1.437 0 1.8.42a1.353 1.353 0 0 1 .2 1.136m-.481-3.744a3.8 3.8 0 0 1 2.984 1.041 3.134 3.134 0 0 1 .519 2.634c-.407 2.576-1.964 3.877-4.662 3.877h-1.3a.567.567 0 0 0-.561.479l-.47 2.965a.4.4 0 0 1-.393.335h-2.1a.34.34 0 0 1-.34-.34.323.323 0 0 1 0-.053L52.222 4.5a.568.568 0 0 1 .562-.478z" style="fill-rule:evenodd;fill:#fff"/>
                <path data-name="패스 15548" d="M13.039 1.357C12.2.406 10.689 0 8.755 0H3.138a.8.8 0 0 0-.793.676L.006 15.447a.465.465 0 0 0-.006.075.481.481 0 0 0 .482.478h3.467l.871-5.5-.027.173A.8.8 0 0 1 5.584 10h1.648c3.236 0 5.77-1.309 6.511-5.1a3.8 3.8 0 0 0-.7-3.544" style="fill-rule:evenodd;fill:#fff"/>
                <g data-name="그룹 1653" style="opacity:.64">
                    <g data-name="그룹 1652">
                        <g data-name="그룹 1651" style="clip-path:url(#stmgzi5i4b)">
                            <path data-name="패스 15549" d="m3.949 16-.239 1.514a.462.462 0 0 0-.005.065.421.421 0 0 0 .421.42h2.923a.7.7 0 0 0 .694-.59l.029-.148.551-3.478.035-.191A.7.7 0 0 1 9.052 13h.437c2.832 0 5.049-1.145 5.7-4.459a3.786 3.786 0 0 0-.589-3.353 2.791 2.791 0 0 0-.8-.615 3.882 3.882 0 0 0-.609-.256 4.518 4.518 0 0 0-.165-.052 6.082 6.082 0 0 0-.72-.159A9.234 9.234 0 0 0 10.915 4H6.45a.7.7 0 0 0-.694.592C4.7 11.276 5.211 8.033 3.949 16" style="fill-rule:evenodd;fill:#fff"/>
                        </g>
                    </g>
                </g>
                <path data-name="패스 15550" d="M13.026 4.265a5.931 5.931 0 0 0-.72-.159A9.234 9.234 0 0 0 10.916 4H6.451a.7.7 0 0 0-.694.592L4.82 10.5l-.027.173A.8.8 0 0 1 5.584 10h1.648c3.237 0 5.771-1.31 6.511-5.1.023-.112.041-.222.058-.328a3.922 3.922 0 0 0-.609-.256 5.23 5.23 0 0 0-.165-.052z" style="fill:#e6e6e6;fill-rule:evenodd"/>
            </g>
        </g>
    </g>
</svg>
