<svg xmlns="http://www.w3.org/2000/svg" width="68.604" height="287.805" viewBox="0 0 68.604 287.805">
    <defs>
        <clipPath id="9xgz2ukw9a">
            <path data-name="사각형 2889" style="fill:none" d="M0 0h68.604v287.805H0z"/>
        </clipPath>
    </defs>
    <g style="opacity:.4">
        <g data-name="그룹 1852" style="clip-path:url(#9xgz2ukw9a)">
            <path data-name="패스 15609" d="M57.02 51.451S68.6 78.186 68.6 143.9c0 65.7-12.484 93.93-12.484 93.93L45.7 245.585s-7 17.384-13.4 25.556C25.889 279.333 0 287.805 0 287.805c10.1-4.6 25.549-19.2 33.692-37.3 8.563-19.061 12.444-84.439 12.444-106.6S42.255 56.366 33.692 37.3C25.549 19.2 10.1 4.575 0 0c0 0 25.889 8.472 32.291 16.645 6.4 8.191 13.4 25.576 13.4 25.576z" style="fill:#ff6900"/>
        </g>
    </g>
</svg>
