<svg width="16" height="17" viewBox="0 0 16 17" fill="none" xmlns="http://www.w3.org/2000/svg">
<path d="M2 4.00195H3.33333H14" stroke="#FF7449" stroke-linecap="round" stroke-linejoin="round"/>
<path d="M5.33325 4.00187V2.66854C5.33325 2.31492 5.47373 1.97578 5.72378 1.72573C5.97383 1.47568 6.31296 1.33521 6.66659 1.33521H9.33325C9.68687 1.33521 10.026 1.47568 10.2761 1.72573C10.5261 1.97578 10.6666 2.31492 10.6666 2.66854V4.00187M12.6666 4.00187V13.3352C12.6666 13.6888 12.5261 14.028 12.2761 14.278C12.026 14.5281 11.6869 14.6685 11.3333 14.6685H4.66659C4.31296 14.6685 3.97382 14.5281 3.72378 14.278C3.47373 14.028 3.33325 13.6888 3.33325 13.3352V4.00187H12.6666Z" stroke="#FF7449" stroke-linecap="round" stroke-linejoin="round"/>
<path d="M6.66675 7.33521V11.3352" stroke="#FF7449" stroke-linecap="round" stroke-linejoin="round"/>
<path d="M9.33325 7.33521V11.3352" stroke="#FF7449" stroke-linecap="round" stroke-linejoin="round"/>
</svg>
